<?xml version="1.0" standalone="no"?>
<!DOCTYPE svg PUBLIC "-//W3C//DTD SVG 20010904//EN"
 "http://www.w3.org/TR/2001/REC-SVG-20010904/DTD/svg10.dtd">
<svg version="1.0" xmlns="http://www.w3.org/2000/svg"
 width="150.000000pt" height="150.000000pt" viewBox="0 0 150.000000 150.000000"
 preserveAspectRatio="xMidYMid meet">
<metadata>
Created by potrace 1.11, written by Peter Selinger 2001-2013
</metadata>
<g transform="translate(0.000000,150.000000) scale(0.100000,-0.100000)"
fill="#000000" stroke="none">
<path d="M0 750 l0 -750 750 0 750 0 0 750 0 750 -750 0 -750 0 0 -750z m840
644 c95 -78 196 -118 350 -139 57 -7 104 -35 131 -77 19 -31 20 -44 15 -253
-6 -290 -33 -406 -129 -553 -88 -132 -248 -255 -396 -303 l-67 -22 -87 36
c-222 90 -389 266 -451 477 -44 146 -64 527 -32 603 22 54 67 85 133 92 141
15 257 60 353 140 74 61 106 61 180 -1z"/>
<path d="M320 715 l0 -195 45 0 45 0 0 80 0 80 85 0 85 0 0 -80 0 -80 45 0 45
0 0 195 0 195 -45 0 -45 0 0 -80 0 -80 -85 0 -85 0 0 80 0 80 -45 0 -45 0 0
-195z"/>
<path d="M750 715 l0 -195 45 0 45 0 0 118 0 117 51 -77 c69 -104 81 -104 146
-1 l48 78 3 -118 3 -117 44 0 45 0 0 195 0 195 -42 0 -43 0 -65 -100 c-35 -55
-67 -97 -71 -92 -3 4 -34 49 -68 100 -60 90 -62 92 -101 92 l-40 0 0 -195z"/>
</g>
</svg>
